<svg width="371" height="174" viewBox="0 0 371 174" fill="none" xmlns="http://www.w3.org/2000/svg">
<rect x="153" y="28" width="28" height="218" transform="rotate(-90 153 28)" fill="#3500D3"/>
<rect x="343" width="28" height="143" fill="#3500D3"/>
<path d="M48.6875 131.438V96.625C48.6875 93.9583 48.1458 91.6458 47.0625 89.6875C46.0208 87.6875 44.4375 86.1458 42.3125 85.0625C40.1875 83.9792 37.5625 83.4375 34.4375 83.4375C31.5208 83.4375 28.9583 83.9375 26.75 84.9375C24.5833 85.9375 22.875 87.25 21.625 88.875C20.4167 90.5 19.8125 92.25 19.8125 94.125H8.25C8.25 91.7083 8.875 89.3125 10.125 86.9375C11.375 84.5625 13.1667 82.4167 15.5 80.5C17.875 78.5417 20.7083 77 24 75.875C27.3333 74.7083 31.0417 74.125 35.125 74.125C40.0417 74.125 44.375 74.9583 48.125 76.625C51.9167 78.2917 54.875 80.8125 57 84.1875C59.1667 87.5208 60.25 91.7083 60.25 96.75V128.25C60.25 130.5 60.4375 132.896 60.8125 135.438C61.2292 137.979 61.8333 140.167 62.625 142V143H50.5625C49.9792 141.667 49.5208 139.896 49.1875 137.688C48.8542 135.438 48.6875 133.354 48.6875 131.438ZM50.6875 102L50.8125 110.125H39.125C35.8333 110.125 32.8958 110.396 30.3125 110.938C27.7292 111.438 25.5625 112.208 23.8125 113.25C22.0625 114.292 20.7292 115.604 19.8125 117.188C18.8958 118.729 18.4375 120.542 18.4375 122.625C18.4375 124.75 18.9167 126.688 19.875 128.438C20.8333 130.188 22.2708 131.583 24.1875 132.625C26.1458 133.625 28.5417 134.125 31.375 134.125C34.9167 134.125 38.0417 133.375 40.75 131.875C43.4583 130.375 45.6042 128.542 47.1875 126.375C48.8125 124.208 49.6875 122.104 49.8125 120.062L54.75 125.625C54.4583 127.375 53.6667 129.312 52.375 131.438C51.0833 133.562 49.3542 135.604 47.1875 137.562C45.0625 139.479 42.5208 141.083 39.5625 142.375C36.6458 143.625 33.3542 144.25 29.6875 144.25C25.1042 144.25 21.0833 143.354 17.625 141.562C14.2083 139.771 11.5417 137.375 9.625 134.375C7.75 131.333 6.8125 127.938 6.8125 124.188C6.8125 120.562 7.52083 117.375 8.9375 114.625C10.3542 111.833 12.3958 109.521 15.0625 107.688C17.7292 105.812 20.9375 104.396 24.6875 103.438C28.4375 102.479 32.625 102 37.25 102H50.6875ZM91 47V143H79.375V47H91ZM121.125 88.375V169H109.5V75.375H120.125L121.125 88.375ZM166.688 108.625V109.938C166.688 114.854 166.104 119.417 164.938 123.625C163.771 127.792 162.062 131.417 159.812 134.5C157.604 137.583 154.875 139.979 151.625 141.688C148.375 143.396 144.646 144.25 140.438 144.25C136.146 144.25 132.354 143.542 129.062 142.125C125.771 140.708 122.979 138.646 120.688 135.938C118.396 133.229 116.562 129.979 115.188 126.188C113.854 122.396 112.938 118.125 112.438 113.375V106.375C112.938 101.375 113.875 96.8958 115.25 92.9375C116.625 88.9792 118.438 85.6042 120.688 82.8125C122.979 79.9792 125.75 77.8333 129 76.375C132.25 74.875 136 74.125 140.25 74.125C144.5 74.125 148.271 74.9583 151.562 76.625C154.854 78.25 157.625 80.5833 159.875 83.625C162.125 86.6667 163.812 90.3125 164.938 94.5625C166.104 98.7708 166.688 103.458 166.688 108.625ZM155.062 109.938V108.625C155.062 105.25 154.708 102.083 154 99.125C153.292 96.125 152.188 93.5 150.688 91.25C149.229 88.9583 147.354 87.1667 145.062 85.875C142.771 84.5417 140.042 83.875 136.875 83.875C133.958 83.875 131.417 84.375 129.25 85.375C127.125 86.375 125.312 87.7292 123.812 89.4375C122.312 91.1042 121.083 93.0208 120.125 95.1875C119.208 97.3125 118.521 99.5208 118.062 101.812V118C118.896 120.917 120.062 123.667 121.562 126.25C123.062 128.792 125.062 130.854 127.562 132.438C130.062 133.979 133.208 134.75 137 134.75C140.125 134.75 142.812 134.104 145.062 132.812C147.354 131.479 149.229 129.667 150.688 127.375C152.188 125.083 153.292 122.458 154 119.5C154.708 116.5 155.062 113.312 155.062 109.938ZM193 47V143H181.438V47H193ZM190.25 106.625L185.438 106.438C185.479 101.812 186.167 97.5417 187.5 93.625C188.833 89.6667 190.708 86.2292 193.125 83.3125C195.542 80.3958 198.417 78.1458 201.75 76.5625C205.125 74.9375 208.854 74.125 212.938 74.125C216.271 74.125 219.271 74.5833 221.938 75.5C224.604 76.375 226.875 77.7917 228.75 79.75C230.667 81.7083 232.125 84.25 233.125 87.375C234.125 90.4583 234.625 94.2292 234.625 98.6875V143H223V98.5625C223 95.0208 222.479 92.1875 221.438 90.0625C220.396 87.8958 218.875 86.3333 216.875 85.375C214.875 84.375 212.417 83.875 209.5 83.875C206.625 83.875 204 84.4792 201.625 85.6875C199.292 86.8958 197.271 88.5625 195.562 90.6875C193.896 92.8125 192.583 95.25 191.625 98C190.708 100.708 190.25 103.583 190.25 106.625ZM291.812 131.438V96.625C291.812 93.9583 291.271 91.6458 290.188 89.6875C289.146 87.6875 287.562 86.1458 285.438 85.0625C283.312 83.9792 280.688 83.4375 277.562 83.4375C274.646 83.4375 272.083 83.9375 269.875 84.9375C267.708 85.9375 266 87.25 264.75 88.875C263.542 90.5 262.938 92.25 262.938 94.125H251.375C251.375 91.7083 252 89.3125 253.25 86.9375C254.5 84.5625 256.292 82.4167 258.625 80.5C261 78.5417 263.833 77 267.125 75.875C270.458 74.7083 274.167 74.125 278.25 74.125C283.167 74.125 287.5 74.9583 291.25 76.625C295.042 78.2917 298 80.8125 300.125 84.1875C302.292 87.5208 303.375 91.7083 303.375 96.75V128.25C303.375 130.5 303.562 132.896 303.938 135.438C304.354 137.979 304.958 140.167 305.75 142V143H293.688C293.104 141.667 292.646 139.896 292.312 137.688C291.979 135.438 291.812 133.354 291.812 131.438ZM293.812 102L293.938 110.125H282.25C278.958 110.125 276.021 110.396 273.438 110.938C270.854 111.438 268.688 112.208 266.938 113.25C265.188 114.292 263.854 115.604 262.938 117.188C262.021 118.729 261.562 120.542 261.562 122.625C261.562 124.75 262.042 126.688 263 128.438C263.958 130.188 265.396 131.583 267.312 132.625C269.271 133.625 271.667 134.125 274.5 134.125C278.042 134.125 281.167 133.375 283.875 131.875C286.583 130.375 288.729 128.542 290.312 126.375C291.938 124.208 292.812 122.104 292.938 120.062L297.875 125.625C297.583 127.375 296.792 129.312 295.5 131.438C294.208 133.562 292.479 135.604 290.312 137.562C288.188 139.479 285.646 141.083 282.688 142.375C279.771 143.625 276.479 144.25 272.812 144.25C268.229 144.25 264.208 143.354 260.75 141.562C257.333 139.771 254.667 137.375 252.75 134.375C250.875 131.333 249.938 127.938 249.938 124.188C249.938 120.562 250.646 117.375 252.062 114.625C253.479 111.833 255.521 109.521 258.188 107.688C260.854 105.812 264.062 104.396 267.812 103.438C271.562 102.479 275.75 102 280.375 102H293.812Z" fill="white"/>
</svg>
